<svg width="20" height="20" viewBox="0 0 20 20" fill="none" xmlns="http://www.w3.org/2000/svg">
<g clip-path="url(#clip0)">
<path d="M0.585067 15.2737H15.8983C16.0356 15.2737 16.1683 15.2256 16.2736 15.138C16.4207 15.0149 19.7758 12.1286 19.9804 5.89824H3.53434C3.33054 11.5537 0.240637 14.212 0.208527 14.2385C0.020276 14.3976 -0.0489849 14.6574 0.0357064 14.8886C0.119812 15.1192 0.339001 15.2737 0.585067 15.2737Z" fill="black" fill-opacity="0.2"/>
<path d="M19.414 2.38245H16.4842V1.79649C16.4842 1.46835 16.2264 1.21053 15.8983 1.21053C15.5701 1.21053 15.3123 1.46835 15.3123 1.79649V2.38245H12.3434V1.79649C12.3434 1.46835 12.0856 1.21053 11.7574 1.21053C11.4293 1.21053 11.1715 1.46835 11.1715 1.79649V2.38245H8.24167V1.79649C8.24167 1.46835 7.98384 1.21053 7.6557 1.21053C7.32756 1.21053 7.06974 1.46835 7.06974 1.79649V2.38245H4.13992C3.81178 2.38245 3.55396 2.64028 3.55396 2.96842V4.72631H20V2.96842C20 2.64028 19.7422 2.38245 19.414 2.38245Z" fill="black" fill-opacity="0.2"/>
<path d="M17.0261 16.0365C16.7079 16.3014 16.3086 16.4457 15.8983 16.4457H3.55396V18.2035C3.55396 18.5274 3.81604 18.7895 4.13992 18.7895H19.414C19.7379 18.7895 20 18.5274 20 18.2035V11.635C18.8703 14.4067 17.2938 15.8125 17.0261 16.0365Z" fill="black" fill-opacity="0.2"/>
</g>
<defs>
<clipPath id="clip0">
<rect width="20" height="20" fill="white"/>
</clipPath>
</defs>
</svg>
