<svg width="19" height="15" viewBox="0 0 19 15" fill="none" xmlns="http://www.w3.org/2000/svg">
<path d="M17.8125 0.96875H6.53125C6.37331 0.96875 6.2225 1.03169 6.11088 1.14212L5.34375 1.91044L4.57662 1.14212C4.465 1.03169 4.31419 0.96875 4.15625 0.96875H1.1875C0.533188 0.96875 0 1.50194 0 2.15625V12.8438C0 13.4993 0.533188 14.0312 1.1875 14.0312H4.15625C4.31419 14.0312 4.465 13.9683 4.57662 13.8579L5.34375 13.0896L6.11088 13.8567C6.2225 13.9683 6.37331 14.0312 6.53125 14.0312H17.8125C18.468 14.0312 19 13.4993 19 12.8438V2.15625C19 1.50194 18.468 0.96875 17.8125 0.96875ZM5.9375 11.6562H4.75V10.4688H5.9375V11.6562ZM5.9375 9.28125H4.75V8.09375H5.9375V9.28125ZM5.9375 6.90625H4.75V5.71875H5.9375V6.90625ZM5.9375 4.53125H4.75V3.34375H5.9375V4.53125ZM10.0938 3.34375C11.0758 3.34375 11.875 4.14294 11.875 5.125C11.875 6.10706 11.0758 6.90625 10.0938 6.90625C9.11169 6.90625 8.3125 6.10706 8.3125 5.125C8.3125 4.14294 9.11169 3.34375 10.0938 3.34375ZM8.90625 11.6562C8.77206 11.6562 8.63787 11.6111 8.52625 11.5185C8.2745 11.3083 8.24006 10.9343 8.45025 10.6825L14.3878 3.5575C14.5991 3.30456 14.9732 3.27369 15.2237 3.4815C15.4755 3.69169 15.5088 4.06575 15.2986 4.31869L9.36106 11.4437C9.24469 11.5826 9.07606 11.6562 8.90625 11.6562ZM13.6562 11.6562C12.6742 11.6562 11.875 10.8571 11.875 9.875C11.875 8.89294 12.6742 8.09375 13.6562 8.09375C14.6383 8.09375 15.4375 8.89294 15.4375 9.875C15.4375 10.8571 14.6383 11.6562 13.6562 11.6562Z" fill="black" fill-opacity="0.2"/>
</svg>
