<svg width="17" height="17" viewBox="0 0 17 17" fill="none" xmlns="http://www.w3.org/2000/svg">
<path d="M8.5 0C3.81316 0 0 3.81316 0 8.5C0 13.1868 3.81316 17 8.5 17C9.99466 17 11.4644 16.6067 12.751 15.8623L11.6875 14.0226C10.7236 14.5803 9.62112 14.875 8.5 14.875C4.98463 14.875 2.12499 12.0154 2.12499 8.5C2.12499 4.98463 4.98463 2.12499 8.5 2.12499C12.0154 2.12499 14.875 4.98463 14.875 8.5V9.42553C14.875 10.1207 14.4283 10.625 13.8125 10.625C13.2268 10.625 12.75 10.1482 12.75 9.56248V5.31249H11.2812C10.5338 4.65951 9.5681 4.24998 8.5 4.24998C6.15658 4.24998 4.24998 6.15658 4.24998 8.5C4.24998 10.8434 6.15658 12.75 8.5 12.75C9.61593 12.75 10.6249 12.3087 11.384 11.6027C11.9692 12.2981 12.8346 12.75 13.8125 12.75C15.5998 12.75 17 11.2896 17 9.42553V8.5C17 3.81316 13.1868 0 8.5 0V0ZM8.5 10.625C7.32802 10.625 6.37501 9.67195 6.37501 8.5C6.37501 7.32802 7.32805 6.37501 8.5 6.37501C9.67198 6.37501 10.625 7.32805 10.625 8.5C10.625 9.67198 9.67198 10.625 8.5 10.625Z" fill="black" fill-opacity="0.2"/>
</svg>
