<svg width="15" height="15" viewBox="0 0 15 15" fill="none" xmlns="http://www.w3.org/2000/svg">
<path d="M12.1179 5.78342C12.0907 5.73533 12.0512 5.69532 12.0034 5.66749C11.9556 5.63965 11.9013 5.62499 11.8461 5.62499H7.75231L8.43863 0.381001C8.446 0.310819 8.42953 0.2402 8.39188 0.180515C8.35423 0.12083 8.29759 0.0755524 8.23108 0.0519716C8.16457 0.0283909 8.09206 0.0278795 8.02522 0.0505198C7.95838 0.0731601 7.90111 0.117635 7.86262 0.176783L2.88418 8.89882C2.85507 8.94617 2.83911 9.00043 2.83796 9.056C2.8368 9.11157 2.85049 9.16644 2.87761 9.21496C2.90474 9.26348 2.94431 9.30389 2.99225 9.33202C3.04019 9.36015 3.09477 9.37498 3.15035 9.37499H7.18293L6.63902 14.6269C6.63368 14.6968 6.65188 14.7665 6.69073 14.8249C6.72958 14.8833 6.78684 14.9271 6.85341 14.9492C6.91998 14.9713 6.99203 14.9705 7.0581 14.9469C7.12417 14.9234 7.18046 14.8784 7.21801 14.8191L12.1142 6.09803C12.1426 6.05061 12.1579 5.9965 12.1585 5.94124C12.1592 5.88597 12.1452 5.83151 12.1179 5.78342Z" fill="white"/>
</svg>
